<svg width="50" height="50" fill="none" xmlns="http://www.w3.org/2000/svg"><circle cx="25" cy="25" r="24" fill="#ECF6FF" stroke="#101C5B"/><path d="M30.632 20.272c-1.27-1.189-2.883-1.794-4.681-1.794-3.19 0-5.889 2.11-6.852 4.947a7.083 7.083 0 00-.384 2.28c0 .791.14 1.56.384 2.28.963 2.836 3.663 4.947 6.852 4.947 1.648 0 3.05-.425 4.146-1.145 1.297-.851 2.16-2.122 2.444-3.622h-6.59v-4.642h11.532c.145.786.223 1.604.223 2.455 0 3.654-1.336 6.73-3.651 8.82-2.026 1.833-4.798 2.907-8.104 2.907-4.787 0-8.928-2.689-10.943-6.61a11.8 11.8 0 010-10.779c2.015-3.922 6.156-6.61 10.943-6.61 3.3 0 6.072 1.188 8.193 3.125l-3.512 3.441z" fill="#101C5B"/></svg>