<svg width="50" height="50" fill="none" xmlns="http://www.w3.org/2000/svg"><circle cx="25" cy="25" r="24" fill="#ECF6FF" stroke="#101C5B"/><path fill-rule="evenodd" clip-rule="evenodd" d="M19.883 12.081c1.43-.065 1.888-.081 5.53-.081h-.004c3.643 0 4.099.016 5.53.081 1.427.065 2.402.292 3.257.623.883.342 1.63.8 2.375 1.547a6.581 6.581 0 011.548 2.376c.33.852.556 1.827.623 3.255.065 1.43.082 1.887.082 5.53 0 3.642-.017 4.098-.081 5.529-.068 1.427-.294 2.402-.624 3.255a6.584 6.584 0 01-1.548 2.376 6.56 6.56 0 01-2.374 1.547c-.853.332-1.829.558-3.257.623-1.43.066-1.886.082-5.529.082-3.642 0-4.099-.016-5.53-.081-1.427-.066-2.402-.292-3.255-.624a6.566 6.566 0 01-2.375-1.547 6.573 6.573 0 01-1.547-2.376c-.331-.853-.557-1.828-.623-3.255-.065-1.431-.081-1.887-.081-5.53 0-3.642.017-4.099.08-5.53.065-1.427.291-2.402.624-3.255a6.584 6.584 0 011.548-2.375 6.568 6.568 0 012.376-1.547c.852-.332 1.827-.558 3.255-.623zm11.08 5.762a1.61 1.61 0 113.218 0 1.61 1.61 0 01-3.218 0zm-12.438 7.16a6.888 6.888 0 1113.776 0 6.888 6.888 0 01-13.776 0zm11.359 0a4.47 4.47 0 10-8.942 0 4.47 4.47 0 008.942 0z" fill="#101C5B"/></svg>